<svg xmlns="http://www.w3.org/2000/svg" width="399.999" height="357.582" viewBox="0 0 399.999 357.582">
  <g id="Group_77" data-name="Group 77" transform="translate(-3410 -169.209)">
    <g id="Group_76" data-name="Group 76">
      <g id="Group_75" data-name="Group 75">
        <g id="Group_74" data-name="Group 74">
          <path id="Path_3" data-name="Path 3" d="M669.583,690.791H312V333.209H669.583V487H650.762V352.029H330.82V671.971H650.762V505.31h18.821Z" transform="translate(3098 -164)" fill="#6281fb"/>
          <path id="Path_4" data-name="Path 4" d="M656.037,493.511" transform="translate(3098 -164)" fill="none"/>
          <path id="Path_5" data-name="Path 5" d="M656.037,414.83" transform="translate(3098 -164)" fill="none"/>
          <path id="Path_6" data-name="Path 6" d="M651.4,445.125H326.06V402.268H651.4Z" transform="translate(3102.641 -123.125)" fill="#6281fb"/>
          <g id="Group_68" data-name="Group 68" transform="translate(3098 -164)">
            <path id="Path_9" data-name="Path 9" d="M466.361,419.424H414.243V367.918h52.118Z" transform="translate(0 0)" fill="#6281fb"/>
          </g>
          <g id="Group_73" data-name="Group 73" transform="translate(3027 -164)">
            <path id="Path_9-2" data-name="Path 9" d="M466.361,419.424H414.243V367.918h52.118Z" transform="translate(0 0)" fill="#6281fb"/>
          </g>
          <g id="Group_70" data-name="Group 70" transform="translate(3098 -164)">
            <path id="Path_11" data-name="Path 11" d="M596.167,587.868l-52.684-52.692L648.606,430.048a37.987,37.987,0,0,1,52.7,0c14.262,14.289,14.258,38.412.005,52.692L596.167,587.868ZM570.1,535.176l26.071,26.08L688,469.435c6.809-6.818,6.809-19.253-.01-26.09-6.488-6.487-19.569-6.5-26.075.01L570.1,535.176Z" fill="#6281fb"/>
          </g>
          <g id="Group_71" data-name="Group 71" transform="translate(3098 -164)">
            <path id="Path_12" data-name="Path 12" d="M514.693,646.921h0a72.86,72.86,0,0,1-51.208-21.063L447.417,609.8h22.716c8.561,0,12.9-2.584,12.9-7.665,0-10.374,1.507-23.782,13.27-35.546a47.385,47.385,0,0,1,32.094-12.6,43.646,43.646,0,0,1,31.111,12.589,44.235,44.235,0,0,1,12.907,32.071,43.715,43.715,0,0,1-14.529,31.41c-10.742,10.77-26.19,16.863-43.2,16.863Zm-23.3-24.1a54.464,54.464,0,0,0,23.3,5.274c11.978,0,22.693-4.136,30.183-11.634,7.076-6.5,8.625-13.481,8.73-18.242a25.333,25.333,0,0,0-7.4-18.341c-9.258-9.227-26.549-9.107-36.919.321-6.488,6.506-7.429,14.409-7.429,21.926a25,25,0,0,1-10.463,20.7Z" fill="#6281fb"/>
          </g>
          <g id="Group_72" data-name="Group 72" transform="translate(3118.658 -163.881)">
            <path id="Path_10" data-name="Path 10" d="M618.861,419.424H470.133V367.8H618.861Z" fill="#6281fb"/>
          </g>
        </g>
      </g>
    </g>
  </g>
</svg>
