<svg width="140" height="62" viewBox="0 0 140 62" fill="none" xmlns="http://www.w3.org/2000/svg">
<rect width="62" height="62" rx="7" fill="#F0DB4F"/>
<rect x="78" width="62" height="62" rx="7" fill="#61DAFB" fill-opacity="0.13"/>
<path d="M53.8478 44.3096C53.4359 41.7444 51.7632 39.5898 46.8085 37.5807C45.0874 36.7897 43.1685 36.2233 42.5968 34.919C42.3937 34.1599 42.3668 33.7323 42.4953 33.2728C42.864 31.7816 44.644 31.3167 46.0548 31.7443C46.9635 32.0489 47.8236 32.7491 48.3424 33.8662C50.7688 32.295 50.7638 32.3053 52.4581 31.2255C51.8378 30.2639 51.5068 29.8201 51.1007 29.4087C49.6414 27.7787 47.653 26.9392 44.4729 27.0034L42.8164 27.2177C41.2291 27.6188 39.7163 28.452 38.8292 29.569C36.1675 32.5892 36.9266 37.8749 40.1655 40.0502C43.3563 42.4451 48.0437 42.99 48.6425 45.2295C49.225 47.9711 46.6275 48.8587 44.0458 48.5434C42.1431 48.1477 41.0849 47.1806 39.9409 45.4222C37.8352 46.6407 37.8352 46.6407 35.6703 47.8858C36.1836 49.0083 36.7231 49.5163 37.5837 50.4887C41.6567 54.6201 51.849 54.417 53.6771 48.1638C53.7512 47.9491 54.2435 46.5172 53.8478 44.3096ZM32.7889 27.3345H27.5297L27.5081 40.9314C27.5081 43.8231 27.6577 46.4741 27.1874 47.2866C26.418 48.8847 24.4242 48.6867 23.5155 48.3767C22.5907 47.9222 22.1204 47.2758 21.5756 46.3623C21.426 46.0999 21.3137 45.8969 21.276 45.8812L17 48.4998C17.711 49.9591 18.7585 51.2258 20.1001 52.0486C22.1043 53.2515 24.7979 53.6202 27.615 52.9734C29.4485 52.4394 31.0304 51.3331 31.8587 49.6492C33.0561 47.4416 32.7992 44.7695 32.7884 41.8141C32.8154 36.9923 32.7889 32.1715 32.7889 27.3345Z" fill="#323330"/>
<path d="M108.717 35.2728C110.801 35.2728 112.49 33.5837 112.49 31.5C112.49 29.4163 110.801 27.7272 108.717 27.7272C106.634 27.7272 104.945 29.4163 104.945 31.5C104.945 33.5837 106.634 35.2728 108.717 35.2728Z" fill="#11CCFF"/>
<path d="M123.047 25.2782C122.319 25.0134 121.558 24.7487 120.764 24.517C120.962 23.7227 121.128 22.9284 121.26 22.1673C121.955 17.7987 121.194 14.7209 119.076 13.5295C118.447 13.1655 117.752 13 116.958 13C114.641 13 111.696 14.7209 108.717 17.6002C105.739 14.7209 102.793 13 100.477 13C99.6825 13 98.9875 13.1655 98.3587 13.5295C96.2406 14.754 95.4794 17.8318 96.1744 22.1673C96.3068 22.9284 96.4723 23.7227 96.6708 24.517C95.8766 24.7487 95.1154 24.9803 94.3873 25.2782C90.2504 26.8667 88 29.051 88 31.5C88 33.949 90.2835 36.1333 94.3873 37.7218C95.1154 37.9866 95.8766 38.2513 96.6708 38.483C96.4723 39.2773 96.3068 40.0716 96.1744 40.8327C95.4794 45.2013 96.2406 48.2791 98.3587 49.4705C98.9875 49.8345 99.6825 50 100.477 50C102.826 50 105.772 48.2791 108.717 45.3998C111.696 48.2791 114.641 50 116.958 50C117.752 50 118.447 49.8345 119.076 49.4705C121.194 48.246 121.955 45.1682 121.26 40.8327C121.128 40.0716 120.962 39.2773 120.764 38.483C121.558 38.2513 122.319 38.0197 123.047 37.7218C127.184 36.1333 129.435 33.949 129.435 31.5C129.435 29.051 127.184 26.8667 123.047 25.2782ZM118.149 15.1843C119.506 15.9785 119.97 18.4275 119.407 21.9025C119.308 22.5975 119.142 23.3256 118.944 24.0868C117.223 23.6896 115.403 23.4249 113.483 23.2594C112.358 21.6708 111.199 20.2478 110.041 18.9571C112.49 16.5411 114.972 14.8864 116.991 14.8864C117.421 14.8864 117.818 14.9857 118.149 15.1843ZM114.443 34.8095C113.847 35.8685 113.152 36.9275 112.424 37.9866C111.199 38.0859 109.975 38.119 108.717 38.119C107.427 38.119 106.202 38.0859 105.011 37.9866C104.283 36.9275 103.621 35.8685 103.025 34.8095C102.396 33.7174 101.801 32.5921 101.271 31.5C101.801 30.4079 102.396 29.2826 103.025 28.1905C103.621 27.1315 104.316 26.0725 105.044 25.0134C106.268 24.9141 107.493 24.881 108.75 24.881C110.041 24.881 111.266 24.9141 112.457 25.0134C113.185 26.0725 113.847 27.1315 114.443 28.1905C115.072 29.2826 115.667 30.4079 116.197 31.5C115.634 32.5921 115.072 33.6843 114.443 34.8095ZM117.19 33.7174C117.686 34.8757 118.083 36.0009 118.447 37.1261C117.322 37.3909 116.131 37.5894 114.873 37.7549C115.27 37.1261 115.7 36.4642 116.064 35.7692C116.462 35.0742 116.826 34.3792 117.19 33.7174ZM108.717 42.686C107.923 41.8256 107.162 40.8989 106.434 39.9392C107.195 39.9723 107.956 40.0054 108.717 40.0054C109.479 40.0054 110.24 39.9723 111.001 39.9392C110.273 40.8989 109.512 41.8256 108.717 42.686ZM102.562 37.7218C101.304 37.5564 100.113 37.3578 98.9875 37.093C99.3515 36.0009 99.7487 34.8426 100.245 33.6843C100.609 34.3462 100.973 35.0411 101.37 35.703C101.767 36.4311 102.165 37.0599 102.562 37.7218ZM100.245 29.2826C99.7487 28.1243 99.3515 26.9991 98.9875 25.8739C100.113 25.6091 101.304 25.4106 102.562 25.2451C102.165 25.8739 101.734 26.5358 101.37 27.2308C100.973 27.9258 100.609 28.6207 100.245 29.2826ZM108.717 20.314C109.512 21.1744 110.273 22.1011 111.001 23.0608C110.24 23.0277 109.479 22.9946 108.717 22.9946C107.956 22.9946 107.195 23.0277 106.434 23.0608C107.162 22.1011 107.923 21.1744 108.717 20.314ZM116.064 27.2639L114.873 25.2782C116.131 25.4436 117.322 25.6422 118.447 25.907C118.083 26.9991 117.686 28.1574 117.19 29.3157C116.826 28.6208 116.462 27.9258 116.064 27.2639ZM98.0277 21.9025C97.4651 18.4275 97.9284 15.9785 99.2853 15.1843C99.6163 14.9857 100.013 14.8864 100.444 14.8864C102.429 14.8864 104.911 16.508 107.394 18.9571C106.235 20.2147 105.077 21.6708 103.952 23.2594C102.032 23.4249 100.212 23.7227 98.4911 24.0868C98.2925 23.3256 98.1601 22.5975 98.0277 21.9025ZM89.8533 31.5C89.8533 29.9445 91.7397 28.2898 95.0492 27.0653C95.7111 26.8005 96.4392 26.5689 97.1673 26.3703C97.6968 28.025 98.3587 29.7791 99.1529 31.5331C98.3587 33.2871 97.6637 35.008 97.1673 36.6628C92.6002 35.339 89.8533 33.3533 89.8533 31.5ZM99.2853 47.8157C97.9284 47.0215 97.4651 44.5725 98.0277 41.0975C98.127 40.4025 98.2925 39.6744 98.4911 38.9132C100.212 39.3104 102.032 39.5751 103.952 39.7406C105.077 41.3292 106.235 42.7522 107.394 44.0429C104.945 46.4589 102.462 48.1136 100.444 48.1136C100.013 48.1136 99.6163 48.0143 99.2853 47.8157ZM119.407 41.0975C119.97 44.5725 119.506 47.0215 118.149 47.8157C117.818 48.0143 117.421 48.1136 116.991 48.1136C115.005 48.1136 112.523 46.492 110.041 44.0429C111.199 42.7853 112.358 41.3292 113.483 39.7406C115.403 39.5751 117.223 39.2773 118.944 38.9132C119.142 39.6744 119.275 40.4025 119.407 41.0975ZM122.386 35.9347C121.724 36.1995 120.996 36.4311 120.267 36.6297C119.738 34.975 119.076 33.2209 118.282 31.4669C119.076 29.7129 119.771 27.992 120.267 26.3372C124.835 27.661 127.581 29.6467 127.581 31.5C127.581 33.0555 125.662 34.7102 122.386 35.9347Z" fill="#11CCFF"/>
</svg>
