<svg width="86" height="45" viewBox="0 0 86 45" fill="none" xmlns="http://www.w3.org/2000/svg">
<path fill-rule="evenodd" clip-rule="evenodd" d="M0.00484738 40.301H2.81653V29.1624L7.2076 38.8739C7.70498 40.0412 8.41954 40.4736 9.80308 40.4736C11.1866 40.4736 11.8585 40.0407 12.3724 38.8739L16.7416 29.1624V40.301H19.5751V29.1624C19.5751 28.0813 19.1422 27.5612 18.2338 27.28C16.0925 26.6314 14.6649 27.1937 14.0162 28.6422L9.71243 38.2456L5.55938 28.6422C4.93208 27.1937 3.48261 26.6314 1.32004 27.28C0.432902 27.5612 0.000484507 28.0809 0.000484507 29.1624L0 40.301H0.00484738ZM21.9156 31.2387H24.7491V37.3599C24.7278 37.7056 24.8572 38.4846 26.3973 38.5054C27.1972 38.5272 32.4968 38.5054 32.5394 38.5054V31.195H35.3729V41.2095C35.3729 43.675 32.3188 44.2151 30.8956 44.2374H21.9854V42.3565H30.9183C32.7353 42.1616 32.5191 41.2536 32.5191 40.9506V40.2147H26.5273C23.7369 40.1929 21.9413 38.9601 21.9205 37.5543V31.2377L21.9156 31.2387ZM82.6936 24.144C80.9639 24.1004 79.622 24.2739 78.4974 24.75C78.1735 24.8809 77.6539 24.8809 77.6112 25.291C77.7843 25.4631 77.8051 25.7447 77.9568 25.9833C78.2162 26.4162 78.6709 26.9993 79.0815 27.3018C79.5362 27.6484 79.9905 27.9941 80.4655 28.2971C81.309 28.8158 82.2607 29.1188 83.0823 29.638C83.5584 29.9409 84.0339 30.3302 84.51 30.655C84.7524 30.8281 84.8993 31.1097 85.2023 31.2173V31.1519C85.051 30.958 85.0074 30.6768 84.8566 30.4596C84.6399 30.2439 84.4237 30.0486 84.207 29.8328C83.5802 28.9893 82.8012 28.2534 81.9577 27.6484C81.2654 27.1724 79.7519 26.5238 79.4708 25.7239L79.4281 25.6803C79.9032 25.6366 80.4655 25.4636 80.9202 25.3337C81.6561 25.1397 82.3261 25.1824 83.0823 24.988C83.429 24.9008 83.7746 24.7931 84.1212 24.685V24.4911C83.7319 24.1018 83.4508 23.5827 83.0402 23.2152C81.9373 22.2636 80.7254 21.3333 79.4708 20.5548C78.8003 20.1223 77.935 19.8407 77.2214 19.4737C76.9611 19.3438 76.5292 19.2788 76.3779 19.0626C75.9877 18.5876 75.772 17.9598 75.4908 17.397C74.864 16.2073 74.258 14.8883 73.7175 13.6337C73.3282 12.7902 73.0897 11.9467 72.6146 11.1681C70.3866 7.4911 67.9637 5.26357 64.2436 3.0787C63.4437 2.62446 62.4921 2.4291 61.4804 2.19156L59.8583 2.1043C59.5117 1.95305 59.1661 1.54197 58.8631 1.34709C57.6303 0.568542 54.4507 -1.11847 53.5417 1.10955C52.9576 2.51539 54.407 3.89942 54.8991 4.61349C55.2675 5.11087 55.7426 5.6732 56.0029 6.23554C56.1484 6.603 56.1968 6.99275 56.3486 7.38203C56.6942 8.33364 57.019 9.39384 57.4732 10.281C57.7156 10.7352 57.9701 11.2117 58.2731 11.6223C58.4462 11.8599 58.7492 11.9685 58.8136 12.3577C58.5106 12.7906 58.4898 13.4388 58.3167 13.9803C57.5377 16.4245 57.8407 19.4524 58.9436 21.247C59.2902 21.7875 60.107 22.9777 61.2152 22.5229C62.1886 22.1337 61.9714 20.9009 62.2526 19.8194C62.3181 19.56 62.2744 19.3869 62.4039 19.2134V19.257L63.291 21.0521C63.9614 22.1119 65.1297 23.2152 66.1027 23.9511C66.6214 24.3404 67.0325 25.0113 67.6811 25.2488V25.1834H67.6384C67.5085 24.9895 67.3136 24.9022 67.1406 24.751C66.7513 24.3617 66.3189 23.8856 66.0159 23.4532C65.1079 22.2423 64.3081 20.9009 63.594 19.5169C63.2474 18.8464 62.9444 18.111 62.6642 17.4406C62.5333 17.1807 62.5333 16.791 62.3176 16.662C61.9928 17.1371 61.5177 17.5492 61.2787 18.1328C60.8676 19.0626 60.825 20.2091 60.6737 21.3988C60.5864 21.4206 60.6252 21.3988 60.5865 21.4424C59.8952 21.2698 59.6567 20.5552 59.3973 19.9503C58.7487 18.4145 58.6401 15.9489 59.2024 14.1752C59.3537 13.7209 60.0033 12.2933 59.7439 11.8608C59.613 11.4498 59.1816 11.2122 58.9431 10.8874C58.6619 10.4763 58.3599 9.95762 58.165 9.50339C57.6463 8.29146 57.3869 6.95106 56.8241 5.73962C56.5638 5.17728 56.1101 4.59313 55.7421 4.07442C55.331 3.49027 54.8778 3.07918 54.553 2.38741C54.4449 2.14987 54.2936 1.76011 54.4667 1.50028C54.5093 1.32721 54.5966 1.26274 54.7687 1.21911C55.0499 0.981569 55.8507 1.28407 56.1319 1.41302C56.9317 1.73781 57.6022 2.04031 58.2726 2.49406C58.5756 2.71027 58.9004 3.12136 59.2897 3.22995H59.7444C60.4366 3.38119 61.2147 3.27358 61.8629 3.46749C63.0093 3.83591 64.0472 4.37595 64.978 4.96059C67.811 6.7557 70.1476 9.30803 71.726 12.3582C71.9854 12.8556 72.0935 13.3098 72.332 13.829C72.7867 14.8892 73.3491 15.9703 73.8023 17.0091C74.257 18.0257 74.6895 19.0646 75.3381 19.9081C75.6629 20.3623 76.9601 20.5998 77.5438 20.8379C77.9767 21.0318 78.6467 21.2063 79.0369 21.4438C79.7718 21.8981 80.5072 22.4173 81.199 22.9146C81.5446 23.1735 82.6267 23.7145 82.6911 24.146L82.6936 24.144ZM60.6364 5.3484C60.3376 5.34576 60.0396 5.3821 59.7502 5.45651V5.50014H59.7929C59.9659 5.84627 60.2689 6.08429 60.4851 6.38727L60.983 7.42566L61.0257 7.38203C61.3286 7.16582 61.4804 6.81969 61.4804 6.30098C61.3505 6.14973 61.3291 5.998 61.221 5.84675C61.0911 5.63054 60.8099 5.52098 60.6364 5.3484Z" fill="#00678C"/>
<path fill-rule="evenodd" clip-rule="evenodd" d="M37.5321 40.301H45.6647C46.6163 40.301 47.5252 40.1071 48.2601 39.7605C49.4929 39.1982 50.0771 38.4419 50.0771 37.4467V35.3704C50.0771 34.5705 49.4066 33.8128 48.0662 33.2941C47.374 33.0348 46.5086 32.883 45.6651 32.883H42.2475C41.101 32.883 40.5605 32.5364 40.4087 31.7802C40.3874 31.6939 40.3874 31.6071 40.3874 31.5208V30.2444C40.3874 30.179 40.3874 30.0932 40.4087 30.0069C40.56 29.4227 40.863 29.271 41.8631 29.1634H50.19V27.281H42.2737C41.1272 27.281 40.5217 27.3464 39.9807 27.5195C38.315 28.0382 37.5796 28.8604 37.5796 30.3089V31.9537C37.5796 33.2287 39.0073 34.3112 41.4297 34.5705C41.689 34.5923 41.9702 34.5924 42.2514 34.5924H45.1716C45.2797 34.5924 45.3874 34.5924 45.4737 34.6142C46.3608 34.7005 46.7501 34.8517 47.0094 35.1755C47.1825 35.3486 47.2261 35.5003 47.2261 35.6952V37.3386C47.2261 37.5325 47.0962 37.7933 46.8368 38.009C46.5775 38.2248 46.1654 38.3765 45.6249 38.3983C45.5168 38.3983 45.4528 38.4201 45.3437 38.4201H37.5321V40.301ZM67.6826 37.0356C67.6826 38.9602 69.1369 40.0412 72.031 40.2584C72.3121 40.2802 72.5715 40.301 72.8527 40.301H80.2067V38.4201H72.7882C71.1434 38.4201 70.5165 38.009 70.5165 37.0143V27.281H67.6772V37.0361L67.6826 37.0356ZM51.8717 37.1214V30.417C51.8717 28.7082 53.0827 27.6693 55.4411 27.3455C55.7004 27.3237 55.9598 27.3019 56.1973 27.3019H61.5609C61.842 27.3019 62.0805 27.3237 62.3617 27.3455C64.7191 27.6693 65.9083 28.7077 65.9083 30.417V37.1214C65.9083 38.5054 65.4114 39.2413 64.2426 39.7392L67.0107 42.2474H63.7452L61.4959 40.2147L59.2242 40.3447H56.1964C55.6415 40.3419 55.0892 40.2694 54.5525 40.1289C52.7588 39.6306 51.8717 38.6795 51.8717 37.1214V37.1214ZM54.9209 36.9711C54.9209 37.0574 54.9694 37.1432 54.9864 37.2523C55.1376 38.0304 55.8725 38.4633 56.9972 38.4633H59.55L57.2144 36.3434H60.4798L62.5343 38.2039C62.9245 37.9872 63.1621 37.6842 63.2483 37.295C63.2702 37.2087 63.2702 37.1011 63.2702 37.0138V30.5896C63.2702 30.5033 63.2702 30.4175 63.2483 30.3302C63.0971 29.5953 62.3622 29.1847 61.2588 29.1847H56.9977C55.7431 29.1847 54.9214 29.7252 54.9214 30.5896L54.9209 36.9711Z" fill="#CE8B2C"/>
</svg>
