<svg xmlns="http://www.w3.org/2000/svg" width="316.514" height="118.873" viewBox="0 0 316.514 118.873">
  <g id="Group_78" data-name="Group 78" transform="translate(-1051.5 987.514)">
    <g id="__id8_s1rxtm492" transform="matrix(-0.174, -0.985, 0.985, -0.174, 1129.929, -736.058)">
      <path id="Path_13" data-name="Path 13" d="M170.03,287.911,155.66,263.02H184.4l-14.37,24.891L155.66,263.02H184.4l-14.37,24.891" transform="translate(0 -119.361)" fill="#ff26be"/>
      <path id="Path_14" data-name="Path 14" d="M202.807,80.432a4.051,4.051,0,0,0-.806.073,7.662,7.662,0,0,0-2.113.717,10.735,10.735,0,0,0-2.732,2,17.271,17.271,0,0,0-2.638,3.463,30.133,30.133,0,0,0-2.137,4.717c-.278.888-.6,1.765-.837,2.72-.125.47-.25.943-.379,1.423-.107.488-.214.977-.321,1.475-.43,1.978-.739,4.067-1,6.188-.128,1.059-.208,2.146-.311,3.221s-.134,2.183-.2,3.267l-.046.815-.021.824c-.012.546-.027,1.093-.04,1.636s-.037,1.084-.034,1.63,0,1.09.006,1.63c-.018,2.152.073,4.293.134,6.344.034,1.029.107,2.049.159,3.038s.095,1.957.177,2.906c.159,1.9.278,3.673.437,5.324s.321,3.157.458,4.5.3,2.51.412,3.468l.369,3.016-17.863.076s.143-1.157.4-3.187c.131-1.014.272-2.238.467-3.651s.443-3,.693-4.732.6-3.609.928-5.587c.162-.989.379-2.009.571-3.047.208-1.038.394-2.094.626-3.172.473-2.155.934-4.372,1.517-6.619.14-.562.278-1.123.418-1.691s.308-1.13.464-1.694.314-1.13.473-1.7l.238-.849.263-.846c.36-1.13.69-2.253,1.075-3.371.4-1.114.763-2.22,1.185-3.309.843-2.18,1.722-4.3,2.714-6.307q.376-.746.742-1.484.4-.724.794-1.432c.5-.946,1.105-1.835,1.639-2.7a33.784,33.784,0,0,1,3.624-4.549,19.415,19.415,0,0,1,3.85-3.069,11.925,11.925,0,0,1,3.474-1.414,8.114,8.114,0,0,1,2.36-.192,4.05,4.05,0,0,1,.812.128" transform="translate(-12.38)" fill="#ff26be"/>
    </g>
    <g id="file_type_html_icon_130541" transform="translate(1259.538 -989.514)">
      <path id="Path_15" data-name="Path 15" d="M13.195,108.99,3.655,2H108.476L98.923,108.973,56,120.873Z" transform="translate(0)" fill="#e44f26"/>
      <path id="Path_16" data-name="Path 16" d="M16,105.09l34.685-9.616,8.16-91.413H16Z" transform="translate(40.065 6.689)" fill="#f1662a"/>
      <path id="Path_17" data-name="Path 17" d="M41.152,33.711H23.788l-1.2-13.437H41.152V7.151H8.25l.314,3.524,3.222,36.159H41.152Z" transform="translate(14.913 16.717)" fill="#ebebeb"/>
      <path id="Path_18" data-name="Path 18" d="M38,32.436l-.059.017L23.329,28.509l-.934-10.465H9.221l1.838,20.6,26.882,7.464L38,46.09Z" transform="translate(18.064 52.07)" fill="#ebebeb"/>
      <path id="Path_19" data-name="Path 19" d="M15.989,13.407V26.53H32.147l-1.52,17.02L15.989,47.5V61.152l26.9-7.459.2-2.216L46.17,16.931l.323-3.524h-30.5Z" transform="translate(40.03 37.021)" fill="#fff"/>
      <path id="Path_20" data-name="Path 20" d="M15.989,7.151V20.274h31.7l.263-2.946.6-6.653.314-3.524Z" transform="translate(40.03 16.717)" fill="#fff"/>
    </g>
    <g id="adobe-xd-seeklogo.com" transform="translate(1051.5 -987.514)">
      <path id="Path_21" data-name="Path 21" d="M100.331,118.873H21.59A21.571,21.571,0,0,1,0,97.283V21.59A21.571,21.571,0,0,1,21.59,0h78.742a21.571,21.571,0,0,1,21.59,21.59V97.283A21.571,21.571,0,0,1,100.331,118.873Z" fill="#ff26be"/>
      <path id="Path_22" data-name="Path 22" d="M197.518,212.91H122.639A18.472,18.472,0,0,1,104.2,194.47V122.639A18.472,18.472,0,0,1,122.639,104.2h74.83a18.437,18.437,0,0,1,18.439,18.439v71.782a18.41,18.41,0,0,1-18.391,18.488Z" transform="translate(-99.118 -99.118)" fill="#2e001f"/>
      <path id="Path_23" data-name="Path 23" d="M492.138,619.515l14.226,27.33c.254.4.1.814-.307.814h-8.842a1,1,0,0,1-1.068-.658c-3.253-6.706-6.555-13.411-9.959-20.624h-.1c-3.048,6.808-6.4,13.972-9.651,20.678a.98.98,0,0,1-.917.561h-8.374c-.507,0-.561-.4-.3-.712l13.919-26.52L467.3,593.561a.411.411,0,0,1,.3-.712h8.739c.507,0,.712.1.912.561,3.2,6.706,6.452,13.616,9.5,20.371h.1c2.946-6.706,6.2-13.665,9.349-20.322.254-.4.4-.658.917-.658H505.3c.4,0,.561.307.307.712Zm16.718,8.281c0-11.836,7.876-21.083,20.371-21.083a22.392,22.392,0,0,1,2.643.1v-13.46a.506.506,0,0,1,.507-.507H540.4c.4,0,.507.151.507.4v46.637a36.281,36.281,0,0,0,.254,4.979c0,.307-.1.4-.4.561a30.242,30.242,0,0,1-13.007,2.946c-11.027.044-18.9-6.759-18.9-20.58Zm23.009-13a7.639,7.639,0,0,0-2.946-.507c-6.4,0-10.871,4.926-10.871,13.109,0,9.349,4.575,13.109,10.315,13.109a9.525,9.525,0,0,0,3.506-.561v-25.15Z" transform="translate(-443.93 -563.89)" fill="#ffd9f2"/>
    </g>
  </g>
</svg>
